<?xml version="1.0" encoding="UTF-8"?><svg id="Layer_1" xmlns="http://www.w3.org/2000/svg" xmlns:xlink="http://www.w3.org/1999/xlink" viewBox="0 0 2000 516.67"><defs><style>.cls-1{fill:url(#linear-gradient);}.cls-2{fill:#fff;}.cls-3{fill:#9275e0;}.cls-4{fill:url(#linear-gradient-8);}.cls-5{fill:url(#linear-gradient-3);}.cls-6{fill:url(#linear-gradient-4);}.cls-7{fill:url(#linear-gradient-2);}.cls-8{fill:url(#linear-gradient-6);}.cls-9{fill:url(#linear-gradient-7);}.cls-10{fill:url(#linear-gradient-5);}</style><linearGradient id="linear-gradient" x1="213.63" y1="4.77" x2="213.63" y2="105.42" gradientTransform="matrix(1, 0, 0, 1, 0, 0)" gradientUnits="userSpaceOnUse"><stop offset="0" stop-color="#9275e0"/><stop offset="1" stop-color="#6c43d0"/></linearGradient><linearGradient id="linear-gradient-2" x1="211.13" y1="487.06" x2="210.23" y2="251.29" xlink:href="#linear-gradient"/><linearGradient id="linear-gradient-3" x1="271.78" y1="223.57" x2="392.64" y2="223.57" xlink:href="#linear-gradient"/><linearGradient id="linear-gradient-4" x1="78.69" y1="251.96" x2="84.71" y2="117.99" xlink:href="#linear-gradient"/><linearGradient id="linear-gradient-5" x1="121.25" y1="259.18" x2="330.86" y2="115.4" xlink:href="#linear-gradient"/><linearGradient id="linear-gradient-6" x1="249.28" y1="94.68" x2="399.23" y2="168.46" xlink:href="#linear-gradient"/><linearGradient id="linear-gradient-7" x1="208.36" y1="174.2" x2="107.88" y2="118.51" xlink:href="#linear-gradient"/><linearGradient id="linear-gradient-8" x1="230.77" y1="176.47" x2="87.63" y2="286.58" xlink:href="#linear-gradient"/></defs><g><path class="cls-1" d="M392.09,146.24c-10.76-17.29-27.1-29.45-49.03-35.93-2.15-.63-4.28-1.19-6.4-1.68-2.48-2.67-5.12-5.23-7.9-7.67-25.58-22.45-62.61-34.32-107.08-34.32H66.56v54.38c-4.77,3.15-9.3,6.81-13.5,10.95-7.65,7.55-13.62,16.2-17.89,25.48V35.25H221.68c52.21,0,96.4,14.57,127.79,42.13,15.54,13.63,27.54,30.1,35.7,48.95,2.78,6.41,5.09,13.06,6.93,19.92Z"/><path class="cls-7" d="M386.09,249.22c-9.26,22.28-24.09,41.48-44.14,56.86-32.91,25.22-77.6,38.55-129.23,38.55h-54.18v119.15H35.17V230.22c2.55,5.52,5.73,10.83,9.54,15.85,6.33,8.34,13.74,15.21,21.86,20.62v165.69h60.59v-119.15h85.57c43.99,0,83.07-11.37,110.06-32.03,15.02-.87,29.95-5.58,43.16-14.09,7.73-4.97,14.49-11.04,20.15-17.89Z"/><path class="cls-5" d="M359.81,264.11c-29.8,19.19-68.67,18.27-96.47-3.54-4.58-3.6-9.79-8.22-15.15-13.2l23.1-21.64c2.71,2.71,5.3,5.17,7.63,7.23,16.97,15.01,36.76,17.62,57.54,8.32,19.76-8.85,31.6-28.79,30.11-50.36-.52-7.48-2.14-14.22-4.86-20.17l32.67-1.37c.59,1.9,1.12,3.83,1.61,5.81,8.34,33.85-6.45,69.77-36.18,88.92Z"/><path class="cls-6" d="M123.96,277.54c-27,1.58-54.18-9.89-72.19-33.61-25.16-33.16-21.73-80.06,8.02-109.42,14.27-14.08,32.5-22.27,51.25-24.19l.61,31.38c-4.83,.84-9.74,2.38-14.71,4.58-19.39,8.62-31.31,28.48-30.45,49.31,.89,21.71,14.21,40.3,34.69,47.44,6.43,2.24,12.63,3.39,18.61,3.48l4.17,31.02Z"/><path class="cls-3" d="M271.29,225.73l-23.1,21.64c-9.25-8.58-18.95-18.22-26.66-25.46,7.97-7.94,14.85-14.78,23.84-23.74,6.97,7.56,17.11,18.79,25.92,27.56Z"/><path class="cls-10" d="M362.46,125.02c-21.84-6.68-45.48,4.16-65.25,18.58-7.82,2.71-15.15,7.51-21.93,14.22-32.01,31.61-63.66,63.57-95.91,94.93-15.91,15.47-35.61,23.64-55.4,24.78l-4.17-31.02c14.07,.22,26.84-5.46,38.15-16.59,32.29-31.79,64.07-64.09,96.68-95.56,23.43-22.61,51.76-29.93,83.27-20.63,9.23,2.73,17.43,6.5,24.59,11.28Z"/><path class="cls-8" d="M394.38,169.38l-32.67,1.37c-5.5-12.07-15.47-20.93-29.76-26.16-12.4-4.53-24.03-4.71-34.74-.98,19.78-14.43,43.41-25.26,65.25-18.58,15.42,10.29,26.06,25.23,31.92,44.35Z"/><path class="cls-9" d="M212.45,167.07c-8,7.23-15.38,13.89-24.96,22.55-6.29-6.83-17.22-19.33-26.4-28.57-2.36-2.38-4.6-4.54-6.62-6.33-12.91-11.46-27.44-15.71-42.83-13.01l-.61-31.38c20.52-2.09,41.67,3.33,58.94,16.74,4.52,3.51,9.72,8.2,15.09,13.3,9.54,9.06,19.63,19.41,27.38,26.7Z"/><path class="cls-4" d="M179.62,208.46c-7.14,7.1-14.49,13.99-21.65,21.06-6.79,6.7-14.15,11.74-21.97,14.46-19.78,14.43-43.37,25.02-65.22,18.35,7.16,4.78,15.36,8.55,24.59,11.28,31.5,9.31,59.83,1.98,83.27-20.63,7.01-6.76,13.97-13.57,20.92-20.4-6.18-8.62-12.26-17.03-19.94-24.12Z"/></g><g><path class="cls-2" d="M670.4,125.48c0,55.42-41.56,89.88-108,89.88h-50.09v68.56h-57.55V35.25h107.64c66.43,0,108,34.46,108,90.23Zm-58.26,0c0-27.36-17.76-43.34-52.93-43.34h-46.89v86.33h46.89c35.17,0,52.93-15.99,52.93-42.99Z"/><path class="cls-2" d="M903.81,237.74v46.18h-192.55V35.25h187.93v46.18h-130.73v54h115.46v44.76h-115.46v57.55h135.35Z"/><path class="cls-2" d="M1108.09,283.93l-47.96-69.27h-52.93v69.27h-57.55V35.25h107.64c66.43,0,108,34.46,108,90.23,0,37.3-18.83,64.66-51.16,78.51l55.78,79.93h-61.82Zm-54-201.79h-46.89v86.68h46.89c35.17,0,52.93-16.34,52.93-43.34s-17.76-43.34-52.93-43.34Z"/><path class="cls-2" d="M1191.21,259.41l19.54-43.34c20.96,15.28,52.22,25.93,82.07,25.93,34.1,0,47.96-11.37,47.96-26.64,0-46.54-144.59-14.57-144.59-106.93,0-42.28,34.11-77.45,104.8-77.45,31.26,0,63.24,7.46,86.33,22.03l-17.76,43.7c-23.09-13.14-46.89-19.54-68.92-19.54-34.11,0-47.25,12.79-47.25,28.42,0,45.83,144.59,14.21,144.59,105.51,0,41.57-34.46,77.09-105.51,77.09-39.43,0-79.22-11.72-101.25-28.78Z"/><path class="cls-2" d="M1437.41,35.25h57.55v248.68h-57.55V35.25Z"/><path class="cls-2" d="M1534.39,259.41l19.54-43.34c20.96,15.28,52.22,25.93,82.06,25.93,34.11,0,47.96-11.37,47.96-26.64,0-46.54-144.59-14.57-144.59-106.93,0-42.28,34.1-77.45,104.8-77.45,31.26,0,63.24,7.46,86.33,22.03l-17.76,43.7c-23.09-13.14-46.89-19.54-68.92-19.54-34.1,0-47.25,12.79-47.25,28.42,0,45.83,144.59,14.21,144.59,105.51,0,41.57-34.46,77.09-105.51,77.09-39.43,0-79.22-11.72-101.25-28.78Z"/><path class="cls-2" d="M1828.55,82.14h-79.58V35.25h216.71v46.89h-79.58v201.79h-57.55V82.14Z"/></g><g><path class="cls-2" d="M579.94,346.65l-56.63,127.06h-9.26l-56.63-127.06h10.17l51.37,115.08,51.37-115.08h9.62Z"/><path class="cls-2" d="M762.2,465.36v8.35h-87.68v-127.06h84.95v8.35h-75.69v50.1h67.71v8.17h-67.71v52.1h78.42Z"/><path class="cls-2" d="M973.5,346.65v127.06h-7.62l-86.59-110.36v110.36h-9.26v-127.06h7.8l86.4,110.36v-110.36h9.26Z"/><path class="cls-2" d="M1116.19,355h-45.74v-8.35h100.74v8.35h-45.74v118.71h-9.26v-118.71Z"/><path class="cls-2" d="M1264.5,419.8v-73.15h9.26v72.79c0,31.77,15.25,46.65,41.75,46.65s41.57-14.88,41.57-46.65v-72.79h9.26v73.15c0,36.3-19.42,54.82-51.01,54.82s-50.83-18.52-50.83-54.82Z"/><path class="cls-2" d="M1571.82,473.71l-30.31-42.48c-3.99,.55-7.99,.91-12.34,.91h-36.3v41.57h-9.26v-127.06h45.56c31.95,0,51.19,15.97,51.19,42.84,0,20.15-10.89,34.13-29.77,39.75l31.76,44.47h-10.53Zm-42.66-49.74c27.23,0,41.75-12.71,41.75-34.49s-14.52-34.49-41.75-34.49h-36.3v68.98h36.3Z"/><path class="cls-2" d="M1776.05,465.36v8.35h-87.67v-127.06h84.95v8.35h-75.69v50.1h67.71v8.17h-67.71v52.1h78.42Z"/><path class="cls-2" d="M1870.99,457.38l4.17-6.9c8.71,9.08,24.87,15.97,41.93,15.97,25.41,0,36.67-11.07,36.67-24.87,0-38.12-79.32-15.25-79.32-62.08,0-17.97,13.8-33.76,45.02-33.76,13.98,0,28.5,4.36,38.3,11.44l-3.45,7.44c-10.53-7.26-23.42-10.71-34.85-10.71-24.69,0-35.76,11.44-35.76,25.41,0,38.12,79.32,15.61,79.32,61.72,0,17.97-14.34,33.58-45.74,33.58-18.88,0-37.03-7.08-46.29-17.24Z"/></g></svg>