<?xml version="1.0" ?>
<!-- Uploaded to: SVG Repo, www.svgrepo.com, Generator: SVG Repo Mixer Tools -->
<svg width="800px" height="800px" viewBox="0 0 1000 1000" id="Layer_2" version="1.1" xml:space="preserve" xmlns="http://www.w3.org/2000/svg" xmlns:xlink="http://www.w3.org/1999/xlink">
<g>
<path d="M818.596,221.014H181.404c-16.569,0-30,13.431-30,30v93.212h697.192v-93.212   C848.596,234.445,835.165,221.014,818.596,221.014z M635.371,295.12h-28c-6.875,0-12.5-5.625-12.5-12.5s5.625-12.5,12.5-12.5h28   c6.875,0,12.5,5.625,12.5,12.5S642.246,295.12,635.371,295.12z M718.871,295.12h-28c-6.875,0-12.5-5.625-12.5-12.5   s5.625-12.5,12.5-12.5h28c6.875,0,12.5,5.625,12.5,12.5S725.746,295.12,718.871,295.12z M802.371,295.12h-28   c-6.875,0-12.5-5.625-12.5-12.5s5.625-12.5,12.5-12.5h28c6.875,0,12.5,5.625,12.5,12.5S809.246,295.12,802.371,295.12z" style="fill:#231F20;"/>
<path d="M799.702,565.448c1.441-1.431,2.161-3.229,2.161-5.392c0-2.036-0.72-3.785-2.161-5.249   c-1.441-1.463-3.215-2.195-5.327-2.195h-9.215v14.984h9.215C796.487,567.596,798.262,566.88,799.702,565.448z" style="fill:#231F20;"/>
<path d="M198.647,524.545c2.072-0.769,3.864-1.857,5.378-3.264c1.513-1.405,2.709-3.064,3.585-4.974   c0.876-1.91,1.315-4.006,1.315-6.288c0-2.387-0.439-4.549-1.315-6.487c-0.876-1.936-2.084-3.595-3.625-4.974   c-1.541-1.379-3.346-2.454-5.417-3.223c-2.072-0.769-4.275-1.155-6.612-1.155h-6.293v31.518h6.293   C194.345,525.698,196.575,525.314,198.647,524.545z" style="fill:#231F20;"/>
<path d="M779.113,507.685c1.818,1.851,3.938,3.301,6.363,4.353c2.423,1.052,5.071,1.579,7.941,1.579   c2.87,0,5.533-0.526,7.989-1.579c2.455-1.052,4.607-2.503,6.458-4.353c1.849-1.85,3.301-4.019,4.353-6.506   c1.052-2.488,1.579-5.134,1.579-7.941c0-2.806-0.543-5.454-1.626-7.941c-1.085-2.488-2.552-4.655-4.401-6.506   c-1.851-1.849-4.018-3.316-6.506-4.401c-2.488-1.084-5.104-1.626-7.845-1.626c-2.87,0-5.534,0.559-7.989,1.674   c-2.456,1.117-4.577,2.616-6.362,4.497c-1.786,1.882-3.19,4.083-4.21,6.602c-1.021,2.52-1.531,5.151-1.531,7.893   c0,2.807,0.51,5.422,1.531,7.845C775.875,503.699,777.295,505.835,779.113,507.685z" style="fill:#231F20;"/>
<path d="M151.404,748.986c0,16.569,13.431,30,30,30h637.192c16.569,0,30-13.431,30-30v-379.76H151.404   V748.986z M812.565,675.556c-1.208,2.485-2.78,4.556-4.711,6.213c-1.933,1.657-4.108,2.899-6.524,3.728   c-2.417,0.828-4.867,1.243-7.352,1.243c-2.899,0-5.643-0.517-8.232-1.553c-2.589-1.036-4.851-2.382-6.783-4.038   c-1.933-1.657-3.469-3.521-4.608-5.592c-1.139-2.071-1.709-4.142-1.709-6.213c0-2.002,0.621-3.537,1.864-4.608   c1.243-1.069,2.657-1.605,4.246-1.605c1.38,0,2.64,0.38,3.779,1.139c1.139,0.76,1.88,2.003,2.226,3.728   c0.345,2.003,1.38,3.573,3.107,4.712c1.725,1.139,3.762,1.708,6.109,1.708c2.001,0,3.831-0.603,5.488-1.812   c1.657-1.207,2.485-3.055,2.485-5.54c0-2.001-0.45-3.64-1.346-4.919c-0.898-1.276-2.055-2.398-3.469-3.365   c-1.416-0.966-2.951-1.846-4.608-2.641c-1.657-0.793-3.21-1.673-4.66-2.641c-1.45-0.966-2.865-2.087-4.246-3.365   c-1.382-1.277-2.624-2.692-3.728-4.246c-1.105-1.553-1.985-3.21-2.64-4.97c-0.657-1.76-0.984-3.641-0.984-5.643   c0-2.83,0.534-5.297,1.605-7.404c1.07-2.105,2.45-3.865,4.142-5.281c1.691-1.414,3.589-2.468,5.695-3.158   c2.105-0.689,4.228-1.036,6.368-1.036c2.071,0,4.158,0.363,6.265,1.088c2.105,0.725,3.987,1.76,5.644,3.107   c1.657,1.346,3.003,2.951,4.038,4.815c1.035,1.864,1.553,3.935,1.553,6.213c0,1.796-0.605,3.331-1.812,4.608   c-1.209,1.278-2.676,1.916-4.401,1.916c-1.589,0-2.935-0.448-4.038-1.346c-1.105-0.896-1.76-2.346-1.967-4.349   c-0.139-1.243-0.795-2.175-1.968-2.796c-1.175-0.621-2.314-0.932-3.417-0.932c-1.726,0-3.021,0.45-3.883,1.346   c-0.864,0.898-1.294,1.968-1.294,3.21c0,1.589,0.379,2.917,1.139,3.987c0.759,1.071,1.725,2.003,2.9,2.796   c1.173,0.794,2.449,1.519,3.831,2.174c1.38,0.657,2.657,1.33,3.831,2.02c1.932,1.174,3.744,2.485,5.436,3.935   c1.691,1.45,3.158,3.038,4.401,4.763c1.243,1.726,2.226,3.573,2.951,5.54c0.725,1.967,1.087,4.09,1.087,6.368   C814.378,670.172,813.772,673.071,812.565,675.556z M773.899,596.227V548.03c0-4.453,2.258-6.681,6.776-6.681h13.648   c2.544,0,4.963,0.494,7.253,1.479c2.291,0.987,4.295,2.338,6.013,4.056c1.718,1.718,3.069,3.722,4.056,6.013   c0.986,2.291,1.479,4.71,1.479,7.254c0,2.61-0.495,5.043-1.485,7.301c-0.99,2.259-2.346,4.247-4.07,5.965   c-1.724,1.718-3.736,3.07-6.034,4.056c-2.298,0.987-4.724,1.479-7.277,1.479h-9.098v17.275c0,3.818-1.861,5.727-5.583,5.727   C775.792,601.954,773.899,600.045,773.899,596.227z M764.044,481.23c1.594-3.858,3.811-7.255,6.649-10.19   c2.837-2.933,6.171-5.262,9.998-6.984c3.827-1.722,7.972-2.584,12.438-2.584c4.593,0,8.85,0.846,12.773,2.536   c3.923,1.691,7.334,3.971,10.237,6.841c2.902,2.87,5.167,6.236,6.793,10.094c1.627,3.86,2.44,7.957,2.44,12.294   c0,4.401-0.83,8.532-2.487,12.39c-1.66,3.86-3.923,7.224-6.793,10.094c-2.87,2.87-6.235,5.119-10.094,6.745   c-3.86,1.626-7.989,2.44-12.39,2.44c-4.401,0-8.548-0.813-12.438-2.44c-3.891-1.627-7.271-3.858-10.142-6.697   c-2.87-2.838-5.151-6.171-6.841-9.998c-1.691-3.827-2.536-7.941-2.536-12.342C761.652,489.156,762.449,485.09,764.044,481.23z    M233.342,566.248c0-10.098,7.265-18.732,17.215-20.457l11.216-1.945c3.372-14.611,9.142-28.301,16.859-40.65l-6.569-9.325   c-5.816-8.255-4.848-19.497,2.292-26.638l11.113-11.113c7.14-7.14,18.383-8.108,26.638-2.293l9.326,6.57   c12.349-7.717,26.04-13.487,40.65-16.859l1.945-11.216c1.725-9.949,10.359-17.215,20.457-17.215H400.2   c10.098,0,18.732,7.265,20.457,17.215l1.946,11.222c20.773,4.796,39.699,14.419,55.529,27.633l-1.58,1.92   c-13.04,15.82-22.81,33.99-28.89,53.37c-13.39-15.53-33.2-25.36-55.32-25.36c-40.31,0-73,32.68-73,73c0,40.31,32.69,73,73,73   c22.12,0,41.93-9.83,55.32-25.36c10.89-12.65,17.53-29.07,17.67-47.03v-1.22c0.14-32.08,11.56-61.5,30.51-84.5   c5.33-6.48,11.26-12.45,17.7-17.83c15.83-13.207,34.756-22.828,55.529-27.624l1.946-11.222   c1.725-9.949,10.359-17.215,20.457-17.215h15.716c10.098,0,18.732,7.265,20.457,17.215l1.945,11.216   c14.61,3.372,28.301,9.142,40.65,16.859l9.326-6.57c8.255-5.815,19.498-4.848,26.638,2.293l11.113,11.113   c7.14,7.141,8.108,18.383,2.292,26.638l-6.569,9.325c7.717,12.349,13.487,26.04,16.859,40.65l11.216,1.945   c9.95,1.725,17.215,10.359,17.215,20.457v15.716c0,10.098-7.265,18.732-17.215,20.457l-11.217,1.945   c-3.373,14.609-9.143,28.3-16.86,40.648l6.571,9.327c5.815,8.255,4.848,19.497-2.292,26.638l-11.113,11.113   c-7.14,7.14-18.383,8.108-26.638,2.292l-9.327-6.57c-12.349,7.717-26.039,13.487-40.648,16.86l-1.945,11.217   c-1.725,9.949-10.359,17.215-20.457,17.215h-15.716c-10.098,0-18.732-7.265-20.457-17.215l-1.946-11.222   c-20.773-4.796-39.7-14.416-55.529-27.624l1.6-1.94c13.03-15.82,22.79-33.99,28.88-53.36c13.38,15.53,33.19,25.36,55.31,25.36   c40.31,0,72.99-32.69,72.99-73c0-40.32-32.68-73-72.99-73c-22.12,0-41.93,9.83-55.31,25.36c-10.9,12.64-17.54,29.06-17.68,47.03   v1.22c-0.14,32.08-11.56,61.5-30.5,84.5c-5.34,6.48-11.27,12.45-17.71,17.82c-15.829,13.214-34.755,22.837-55.529,27.633   l-1.946,11.222c-1.725,9.949-10.359,17.215-20.457,17.215h-15.716c-10.098,0-18.732-7.265-20.457-17.215l-1.945-11.217   c-14.609-3.373-28.299-9.143-40.648-16.86l-9.328,6.57c-8.255,5.816-19.498,4.848-26.638-2.292l-11.113-11.113   c-7.14-7.141-8.108-18.383-2.292-26.638l6.571-9.327c-7.717-12.348-13.487-26.039-16.86-40.648l-11.217-1.945   c-9.95-1.725-17.215-10.359-17.215-20.457V566.248z M176.295,489.417c0-1.323,0.437-2.434,1.31-3.334   c0.873-0.899,1.997-1.35,3.374-1.35h11.909c3.652,0,7.038,0.662,10.162,1.985c3.122,1.323,5.835,3.124,8.137,5.399   c2.302,2.276,4.101,4.949,5.398,8.019c1.296,3.07,1.945,6.351,1.945,9.844c0,3.811-0.715,7.264-2.144,10.361   c-1.429,3.096-3.362,5.743-5.795,7.939c-2.435,2.197-5.267,3.89-8.495,5.081c-3.229,1.191-6.643,1.786-10.241,1.786h-10.877   c-1.377,0-2.501-0.449-3.374-1.35c-0.873-0.899-1.31-2.011-1.31-3.334V489.417z M207.416,568.58c1.322,0,2.447,0.447,3.374,1.339   c0.925,0.893,1.389,1.994,1.389,3.307c0,1.207-0.464,2.309-1.389,3.306c-0.927,0.997-2.052,1.496-3.374,1.496h-16.593v13.338   h17.704c1.27,0,2.355,0.46,3.255,1.378c0.899,0.918,1.35,2.059,1.35,3.424c0,1.313-0.45,2.415-1.35,3.307   c-0.9,0.893-1.985,1.338-3.255,1.338H186.1c-1.365,0-2.48-0.449-3.346-1.35c-0.866-0.899-1.299-2.01-1.299-3.334v-41.045   c0-1.323,0.433-2.434,1.299-3.335c0.866-0.899,1.981-1.35,3.346-1.35h22.507c1.322,0,2.447,0.45,3.374,1.35   c0.925,0.901,1.389,2.012,1.389,3.335c0,1.323-0.464,2.448-1.389,3.374c-0.927,0.927-2.052,1.389-3.374,1.389h-17.784v8.733   H207.416z M176.017,614.456c0.926-0.925,2.051-1.389,3.374-1.389c0.899,0,1.747,0.252,2.54,0.754   c0.794,0.503,1.429,1.284,1.905,2.342l13.417,31.359l13.814-31.439c0.476-1.058,1.124-1.826,1.945-2.302   c0.82-0.476,1.68-0.715,2.58-0.715c1.163,0,2.223,0.385,3.176,1.151c0.953,0.768,1.429,1.814,1.429,3.136   c-0.107,0.371-0.186,0.742-0.238,1.112c-0.053,0.371-0.133,0.768-0.238,1.191l-17.783,40.648c-0.424,0.9-1.006,1.655-1.747,2.263   c-0.742,0.609-1.721,0.913-2.938,0.913c-1.111,0-2.024-0.304-2.739-0.913c-0.714-0.608-1.284-1.389-1.707-2.342l-17.466-39.854   c-0.265-0.476-0.45-0.939-0.556-1.389c-0.107-0.449-0.159-0.886-0.159-1.31C174.628,616.454,175.09,615.382,176.017,614.456z" style="fill:#231F20;"/>
</g>
</svg>